<svg xmlns="http://www.w3.org/2000/svg" version="1.1" width="2283" height="525" viewBox="0 0 2283 525">
    <path fill="#c52419" d="M92,415C-71,152 306,-95 536,123 285,119 139,228 92,415z"/>
    <path d="m130,460 7,8 197,1c9,-155 90,-240 247,-296 l -6,-7c-207,1 -384,71 -445,294z"/>
    <g transform="translate(580,208)">
        <path d="M0,0h235v42h-80v205h-75v-205h-80zM572,0h76v249h-76zM1050,0h34l153,141v-141h71v247h-34l-153,-141v141h-71zM1330,248 l148,-248h24l147,248h-81l-23,-41h-120l-21,41h-73zm153,-147-47,80h93z"/>
        <path d="m0,0 h133c132,12 107,117 42,130l100,117h-85l-85,-105h-30v105h-75z m115,115C161,113 171,48 115,42l-40,0 0,74 40,0z" transform="translate(268,0)"/>
        <path d="M 150,0C365,-12 350,268 149,252 -50,258 -50,-8 150,0z m0,206C250,221 257,38 150,44 47,47 61,213 150,206z" transform="translate(701,0)"/>
    </g>
</svg>